<?xml version="1.0" encoding="UTF-8" standalone="no"?>
<svg width="75px" height="75px" viewBox="0 0 75 75" version="1.1" xmlns="http://www.w3.org/2000/svg" xmlns:xlink="http://www.w3.org/1999/xlink">
    <!-- Generator: Sketch 3.8.3 (29802) - http://www.bohemiancoding.com/sketch -->
    <title>Group 2</title>
    <desc>Created with Sketch.</desc>
    <defs>
        <filter x="-50%" y="-50%" width="200%" height="200%" filterUnits="objectBoundingBox" id="filter-1">
            <feOffset dx="0" dy="3" in="SourceAlpha" result="shadowOffsetOuter1"></feOffset>
            <feGaussianBlur stdDeviation="1.5" in="shadowOffsetOuter1" result="shadowBlurOuter1"></feGaussianBlur>
            <feColorMatrix values="0 0 0 0 0   0 0 0 0 0   0 0 0 0 0  0 0 0 0.5 0" type="matrix" in="shadowBlurOuter1" result="shadowMatrixOuter1"></feColorMatrix>
            <feMerge>
                <feMergeNode in="shadowMatrixOuter1"></feMergeNode>
                <feMergeNode in="SourceGraphic"></feMergeNode>
            </feMerge>
        </filter>
    </defs>
    <g id="Page-1" stroke="none" stroke-width="1" fill="none" fill-rule="evenodd">
        <g id="IMS-Icons" transform="translate(-110.000000, -16.000000)">
            <g id="Group-2" transform="translate(110.000000, 16.000000)">
                <circle id="Oval-18" fill="#007DC6" cx="37.5" cy="37.5" r="37.5"></circle>
                <g id="Group" transform="translate(10.000000, 20.000000)">
                    <g id="Group-9" filter="url(#filter-1)" fill="#FFC220">
                        <ellipse id="Oval-20" cx="47.5" cy="33.5" rx="2.5" ry="2.5"></ellipse>
                        <rect id="Combined-Shape" x="10" y="27" width="45" height="3" rx="1.5"></rect>
                        <rect id="Rectangle-22" transform="translate(7.000000, 4.500000) scale(-1, 1) rotate(-21.000000) translate(-7.000000, -4.500000) " x="1" y="3" width="12" height="3" rx="1.5"></rect>
                        <rect id="Rectangle-26" x="10" y="5" width="3" height="25" rx="1.5"></rect>
                        <rect id="Combined-Shape" x="10" y="27" width="45" height="3" rx="1.5"></rect>
                        <rect id="Rectangle-22" transform="translate(7.000000, 4.500000) scale(-1, 1) rotate(-21.000000) translate(-7.000000, -4.500000) " x="1" y="3" width="12" height="3" rx="1.5"></rect>
                        <rect id="Rectangle-26" x="10" y="5" width="3" height="25" rx="1.5"></rect>
                        <ellipse id="Oval-20" cx="18.5" cy="33.5" rx="2.5" ry="2.5"></ellipse>
                    </g>
                    <g id="Group-8" transform="translate(15.000000, 3.000000)" fill="#F1F4F7">
                        <polyline id="Path-53" points="20.5248935 21.5268186 37.9756098 21.5268186 37.9756098 10.6680262 31.9744549 10.6680262 31.9744549 12.8861207 26.5837664 12.8861207 26.5837664 10.5416667 20.5730365 10.5416667 19.9756098 10.5416667 19.9756098 21.5416667"></polyline>
                        <polyline id="Path-53" points="0.549283743 7.9892014 18 7.9892014 18 0.0918978369 11.9988451 0.0918978369 11.9988451 1.70505747 6.60815664 1.70505747 6.60815664 0 0.597426779 5.38141474e-16 5.19366652e-17 4.84653772e-16 7.21994734e-16 8"></polyline>
                        <polyline id="Path-53" points="0.549283743 21.5268186 18 21.5268186 18 10.6680262 11.9988451 10.6680262 11.9988451 12.8861207 6.60815664 12.8861207 6.60815664 10.5416667 0.597426779 10.5416667 5.19366652e-17 10.5416667 7.21994734e-16 21.5416667"></polyline>
                    </g>
                </g>
            </g>
        </g>
    </g>
</svg>